<svg xmlns="http://www.w3.org/2000/svg" xmlns:xlink="http://www.w3.org/1999/xlink" width="1134" zoomAndPan="magnify" viewBox="0 0 850.5 254.999984" height="340" preserveAspectRatio="xMidYMid meet" version="1.2"><defs><clipPath id="d489c4a608"><path d="M 21 0.0742188 L 800 0.0742188 L 800 254.925781 L 21 254.925781 Z M 21 0.0742188 "/></clipPath><clipPath id="90ea66ca54"><path d="M 0.347656 0.0742188 L 219 0.0742188 L 219 254.925781 L 0.347656 254.925781 Z M 0.347656 0.0742188 "/></clipPath><clipPath id="480a882a03"><path d="M 0.347656 0.0742188 L 32 0.0742188 L 32 254.925781 L 0.347656 254.925781 Z M 0.347656 0.0742188 "/></clipPath><clipPath id="5c995fa965"><path d="M 188 0.0742188 L 218.859375 0.0742188 L 218.859375 254.925781 L 188 254.925781 Z M 188 0.0742188 "/></clipPath><clipPath id="68f20bfdf1"><path d="M 94 58 L 126 58 L 126 254.925781 L 94 254.925781 Z M 94 58 "/></clipPath><clipPath id="8834a9f15c"><path d="M 0.347656 0.0742188 L 218.859375 0.0742188 L 218.859375 254.925781 L 0.347656 254.925781 Z M 0.347656 0.0742188 "/></clipPath><clipPath id="cc8216a474"><rect x="0" width="219" y="0" height="255"/></clipPath><clipPath id="1958671768"><path d="M 286 23 L 778.210938 23 L 778.210938 234 L 286 234 Z M 286 23 "/></clipPath><clipPath id="ce2d6bb0cb"><path d="M 0.5 0.101562 L 492.210938 0.101562 L 492.210938 155 L 0.5 155 Z M 0.5 0.101562 "/></clipPath><clipPath id="bf5e49f4ca"><rect x="0" width="493" y="0" height="155"/></clipPath><clipPath id="d54f546a44"><path d="M 89 164 L 403 164 L 403 210.457031 L 89 210.457031 Z M 89 164 "/></clipPath><clipPath id="abe3a45967"><rect x="0" width="314" y="0" height="47"/></clipPath><clipPath id="2369008e52"><rect x="0" width="493" y="0" height="211"/></clipPath><clipPath id="f0c850a02b"><rect x="0" width="779" y="0" height="255"/></clipPath></defs><g id="fa99e378f4"><g clip-rule="nonzero" clip-path="url(#d489c4a608)"><g transform="matrix(1,0,0,1,21,-0.000000000000030406)"><g clip-path="url(#f0c850a02b)"><g clip-rule="nonzero" clip-path="url(#90ea66ca54)"><g transform="matrix(1,0,0,1,0,-0.000000000000030406)"><g id="26007c59a4" clip-path="url(#cc8216a474)"><g clip-rule="nonzero" clip-path="url(#480a882a03)"><path style="fill:none;stroke-width:10;stroke-linecap:butt;stroke-linejoin:miter;stroke:#132830;stroke-opacity:1;stroke-miterlimit:4;" d="M 0.000540538 5.000379 L 78.700383 5.000379 " transform="matrix(0,3.050852,-3.050852,0,31.310105,9.19757)"/></g><g clip-rule="nonzero" clip-path="url(#5c995fa965)"><path style="fill:none;stroke-width:10;stroke-linecap:butt;stroke-linejoin:miter;stroke:#132830;stroke-opacity:1;stroke-miterlimit:4;" d="M 0.000540538 4.999916 L 78.700383 4.999916 " transform="matrix(0,3.050852,-3.050852,0,218.847752,9.19757)"/></g><g clip-rule="nonzero" clip-path="url(#68f20bfdf1)"><path style="fill:none;stroke-width:10;stroke-linecap:butt;stroke-linejoin:miter;stroke:#132830;stroke-opacity:1;stroke-miterlimit:4;" d="M -0.000152316 5.000331 L 57.624634 5.000331 " transform="matrix(0,3.050852,-3.050852,0,125.075582,73.500465)"/></g><g clip-rule="nonzero" clip-path="url(#8834a9f15c)"><path style="fill:none;stroke-width:10;stroke-linecap:butt;stroke-linejoin:miter;stroke:#132830;stroke-opacity:1;stroke-miterlimit:4;" d="M -0.000430267 4.999804 L 36.949023 5.000003 " transform="matrix(-2.407629,1.873772,-1.873772,-2.407629,206.633082,33.26504)"/><path style="fill:none;stroke-width:10;stroke-linecap:butt;stroke-linejoin:miter;stroke:#132830;stroke-opacity:1;stroke-miterlimit:4;" d="M 0.000709506 5.00019 L 36.948721 4.999322 " transform="matrix(-2.391936,-1.893764,1.893764,-2.391936,100.946579,103.059131)"/></g></g></g></g><g clip-rule="nonzero" clip-path="url(#1958671768)"><g transform="matrix(1,0,0,1,286,23)"><g id="c6aa921ed8" clip-path="url(#2369008e52)"><g clip-rule="nonzero" clip-path="url(#ce2d6bb0cb)"><g transform="matrix(1,0,0,1,0,-0.000000000000031974)"><g id="5f0277e971" clip-path="url(#bf5e49f4ca)"><g style="fill:#132830;fill-opacity:1;"><g transform="translate(1.672635, 121.937741)"><path style="stroke:none" d="M 95.5 -68.515625 C 103.945312 -68.515625 110.65625 -66.023438 115.625 -61.046875 C 120.601562 -56.066406 123.09375 -48.601562 123.09375 -38.65625 L 123.09375 0 L 103.53125 0 L 103.53125 -35.640625 C 103.53125 -40.992188 102.421875 -44.988281 100.203125 -47.625 C 97.984375 -50.257812 94.820312 -51.578125 90.71875 -51.578125 C 86.125 -51.578125 82.488281 -50.09375 79.8125 -47.125 C 77.132812 -44.15625 75.796875 -39.738281 75.796875 -33.875 L 75.796875 0 L 56.21875 0 L 56.21875 -35.640625 C 56.21875 -46.265625 51.953125 -51.578125 43.421875 -51.578125 C 38.898438 -51.578125 35.300781 -50.09375 32.625 -47.125 C 29.945312 -44.15625 28.609375 -39.738281 28.609375 -33.875 L 28.609375 0 L 9.03125 0 L 9.03125 -67.515625 L 27.734375 -67.515625 L 27.734375 -59.734375 C 30.242188 -62.578125 33.316406 -64.75 36.953125 -66.25 C 40.585938 -67.757812 44.582031 -68.515625 48.9375 -68.515625 C 53.707031 -68.515625 58.015625 -67.570312 61.859375 -65.6875 C 65.710938 -63.8125 68.8125 -61.070312 71.15625 -57.46875 C 73.914062 -60.988281 77.40625 -63.707031 81.625 -65.625 C 85.851562 -67.550781 90.476562 -68.515625 95.5 -68.515625 Z M 95.5 -68.515625 "/></g></g><g style="fill:#132830;fill-opacity:1;"><g transform="translate(134.021952, 121.937741)"><path style="stroke:none" d="M 75.171875 -33.5 C 75.171875 -33.25 75.039062 -31.492188 74.78125 -28.234375 L 23.71875 -28.234375 C 24.632812 -24.046875 26.804688 -20.738281 30.234375 -18.3125 C 33.671875 -15.894531 37.941406 -14.6875 43.046875 -14.6875 C 46.554688 -14.6875 49.671875 -15.207031 52.390625 -16.25 C 55.109375 -17.289062 57.640625 -18.941406 59.984375 -21.203125 L 70.390625 -9.90625 C 64.035156 -2.632812 54.753906 1 42.546875 1 C 34.929688 1 28.191406 -0.484375 22.328125 -3.453125 C 16.472656 -6.421875 11.957031 -10.539062 8.78125 -15.8125 C 5.601562 -21.082031 4.015625 -27.0625 4.015625 -33.75 C 4.015625 -40.363281 5.582031 -46.328125 8.71875 -51.640625 C 11.851562 -56.953125 16.160156 -61.09375 21.640625 -64.0625 C 27.117188 -67.03125 33.25 -68.515625 40.03125 -68.515625 C 46.632812 -68.515625 52.613281 -67.09375 57.96875 -64.25 C 63.320312 -61.40625 67.523438 -57.328125 70.578125 -52.015625 C 73.640625 -46.703125 75.171875 -40.53125 75.171875 -33.5 Z M 40.15625 -53.703125 C 35.71875 -53.703125 31.992188 -52.445312 28.984375 -49.9375 C 25.972656 -47.425781 24.132812 -44 23.46875 -39.65625 L 56.71875 -39.65625 C 56.050781 -43.914062 54.210938 -47.320312 51.203125 -49.875 C 48.191406 -52.425781 44.507812 -53.703125 40.15625 -53.703125 Z M 40.15625 -53.703125 "/></g></g><g style="fill:#132830;fill-opacity:1;"><g transform="translate(211.925684, 121.937741)"><path style="stroke:none" d="M 76.046875 -67.515625 L 45.546875 4.140625 C 42.453125 11.921875 38.625 17.398438 34.0625 20.578125 C 29.507812 23.753906 24.007812 25.34375 17.5625 25.34375 C 14.050781 25.34375 10.578125 24.796875 7.140625 23.703125 C 3.710938 22.617188 0.914062 21.117188 -1.25 19.203125 L 5.890625 5.265625 C 7.398438 6.609375 9.132812 7.65625 11.09375 8.40625 C 13.0625 9.15625 15.007812 9.53125 16.9375 9.53125 C 19.613281 9.53125 21.785156 8.878906 23.453125 7.578125 C 25.128906 6.285156 26.640625 4.132812 27.984375 1.125 L 28.234375 0.5 L -1 -67.515625 L 19.203125 -67.515625 L 38.140625 -21.703125 L 57.21875 -67.515625 Z M 76.046875 -67.515625 "/></g></g><g style="fill:#132830;fill-opacity:1;"><g transform="translate(286.944423, 121.937741)"><path style="stroke:none" d="M 9.03125 -93.109375 L 28.609375 -93.109375 L 28.609375 0 L 9.03125 0 Z M 9.03125 -93.109375 "/></g></g><g style="fill:#132830;fill-opacity:1;"><g transform="translate(324.704699, 121.937741)"><path style="stroke:none" d="M 75.171875 -33.5 C 75.171875 -33.25 75.039062 -31.492188 74.78125 -28.234375 L 23.71875 -28.234375 C 24.632812 -24.046875 26.804688 -20.738281 30.234375 -18.3125 C 33.671875 -15.894531 37.941406 -14.6875 43.046875 -14.6875 C 46.554688 -14.6875 49.671875 -15.207031 52.390625 -16.25 C 55.109375 -17.289062 57.640625 -18.941406 59.984375 -21.203125 L 70.390625 -9.90625 C 64.035156 -2.632812 54.753906 1 42.546875 1 C 34.929688 1 28.191406 -0.484375 22.328125 -3.453125 C 16.472656 -6.421875 11.957031 -10.539062 8.78125 -15.8125 C 5.601562 -21.082031 4.015625 -27.0625 4.015625 -33.75 C 4.015625 -40.363281 5.582031 -46.328125 8.71875 -51.640625 C 11.851562 -56.953125 16.160156 -61.09375 21.640625 -64.0625 C 27.117188 -67.03125 33.25 -68.515625 40.03125 -68.515625 C 46.632812 -68.515625 52.613281 -67.09375 57.96875 -64.25 C 63.320312 -61.40625 67.523438 -57.328125 70.578125 -52.015625 C 73.640625 -46.703125 75.171875 -40.53125 75.171875 -33.5 Z M 40.15625 -53.703125 C 35.71875 -53.703125 31.992188 -52.445312 28.984375 -49.9375 C 25.972656 -47.425781 24.132812 -44 23.46875 -39.65625 L 56.71875 -39.65625 C 56.050781 -43.914062 54.210938 -47.320312 51.203125 -49.875 C 48.191406 -52.425781 44.507812 -53.703125 40.15625 -53.703125 Z M 40.15625 -53.703125 "/></g></g><g style="fill:#132830;fill-opacity:1;"><g transform="translate(403.863272, 121.937741)"><path style="stroke:none" d="M 50.0625 -68.515625 C 58.425781 -68.515625 65.179688 -66.003906 70.328125 -60.984375 C 75.472656 -55.960938 78.046875 -48.519531 78.046875 -38.65625 L 78.046875 0 L 58.46875 0 L 58.46875 -35.640625 C 58.46875 -40.992188 57.296875 -44.988281 54.953125 -47.625 C 52.617188 -50.257812 49.234375 -51.578125 44.796875 -51.578125 C 39.859375 -51.578125 35.925781 -50.046875 33 -46.984375 C 30.070312 -43.929688 28.609375 -39.394531 28.609375 -33.375 L 28.609375 0 L 9.03125 0 L 9.03125 -67.515625 L 27.734375 -67.515625 L 27.734375 -59.609375 C 30.328125 -62.453125 33.546875 -64.644531 37.390625 -66.1875 C 41.242188 -67.738281 45.46875 -68.515625 50.0625 -68.515625 Z M 50.0625 -68.515625 "/></g></g></g></g></g><g clip-rule="nonzero" clip-path="url(#d54f546a44)"><g transform="matrix(1,0,0,1,89,164)"><g id="10e0208f1c" clip-path="url(#abe3a45967)"><g style="fill:#132830;fill-opacity:1;"><g transform="translate(1.408936, 34.853789)"><path style="stroke:none" d="M 9.203125 -21.421875 L 9.203125 -14.46875 L 21.375 -14.46875 L 21.375 -9.578125 L 9.203125 -9.578125 L 9.203125 0 L 3.125 0 L 3.125 -26.296875 L 23 -26.296875 L 23 -21.421875 Z M 9.203125 -21.421875 "/></g></g><g style="fill:#132830;fill-opacity:1;"><g transform="translate(24.890244, 34.853789)"><path style="stroke:none" d="M 22.515625 -10.03125 C 22.515625 -9.957031 22.472656 -9.429688 22.390625 -8.453125 L 7.109375 -8.453125 C 7.378906 -7.203125 8.023438 -6.210938 9.046875 -5.484375 C 10.078125 -4.753906 11.359375 -4.390625 12.890625 -4.390625 C 13.941406 -4.390625 14.875 -4.546875 15.6875 -4.859375 C 16.5 -5.179688 17.257812 -5.675781 17.96875 -6.34375 L 21.078125 -2.96875 C 19.171875 -0.789062 16.390625 0.296875 12.734375 0.296875 C 10.453125 0.296875 8.4375 -0.144531 6.6875 -1.03125 C 4.9375 -1.925781 3.582031 -3.160156 2.625 -4.734375 C 1.675781 -6.316406 1.203125 -8.109375 1.203125 -10.109375 C 1.203125 -12.085938 1.671875 -13.867188 2.609375 -15.453125 C 3.546875 -17.046875 4.832031 -18.285156 6.46875 -19.171875 C 8.113281 -20.066406 9.953125 -20.515625 11.984375 -20.515625 C 13.960938 -20.515625 15.753906 -20.085938 17.359375 -19.234375 C 18.960938 -18.390625 20.222656 -17.171875 21.140625 -15.578125 C 22.054688 -13.984375 22.515625 -12.132812 22.515625 -10.03125 Z M 12.03125 -16.078125 C 10.695312 -16.078125 9.578125 -15.703125 8.671875 -14.953125 C 7.773438 -14.203125 7.226562 -13.175781 7.03125 -11.875 L 16.984375 -11.875 C 16.785156 -13.15625 16.234375 -14.175781 15.328125 -14.9375 C 14.429688 -15.695312 13.332031 -16.078125 12.03125 -16.078125 Z M 12.03125 -16.078125 "/></g></g><g style="fill:#132830;fill-opacity:1;"><g transform="translate(48.596981, 34.853789)"><path style="stroke:none" d="M 15 -20.515625 C 17.5 -20.515625 19.519531 -19.765625 21.0625 -18.265625 C 22.601562 -16.765625 23.375 -14.535156 23.375 -11.578125 L 23.375 0 L 17.515625 0 L 17.515625 -10.671875 C 17.515625 -12.273438 17.160156 -13.46875 16.453125 -14.25 C 15.753906 -15.039062 14.742188 -15.4375 13.421875 -15.4375 C 11.941406 -15.4375 10.757812 -14.976562 9.875 -14.0625 C 9 -13.15625 8.5625 -11.800781 8.5625 -10 L 8.5625 0 L 2.703125 0 L 2.703125 -20.21875 L 8.3125 -20.21875 L 8.3125 -17.84375 C 9.082031 -18.695312 10.039062 -19.351562 11.1875 -19.8125 C 12.34375 -20.28125 13.613281 -20.515625 15 -20.515625 Z M 15 -20.515625 "/></g></g><g style="fill:#132830;fill-opacity:1;"><g transform="translate(74.557906, 34.853789)"><path style="stroke:none" d="M 9.5 0.296875 C 7.820312 0.296875 6.179688 0.09375 4.578125 -0.3125 C 2.972656 -0.726562 1.695312 -1.25 0.75 -1.875 L 2.703125 -6.09375 C 3.609375 -5.507812 4.695312 -5.035156 5.96875 -4.671875 C 7.25 -4.316406 8.503906 -4.140625 9.734375 -4.140625 C 12.210938 -4.140625 13.453125 -4.75 13.453125 -5.96875 C 13.453125 -6.550781 13.113281 -6.96875 12.4375 -7.21875 C 11.757812 -7.46875 10.71875 -7.679688 9.3125 -7.859375 C 7.664062 -8.109375 6.300781 -8.394531 5.21875 -8.71875 C 4.144531 -9.039062 3.210938 -9.613281 2.421875 -10.4375 C 1.628906 -11.269531 1.234375 -12.453125 1.234375 -13.984375 C 1.234375 -15.253906 1.601562 -16.382812 2.34375 -17.375 C 3.082031 -18.363281 4.160156 -19.132812 5.578125 -19.6875 C 6.992188 -20.238281 8.664062 -20.515625 10.59375 -20.515625 C 12.019531 -20.515625 13.441406 -20.359375 14.859375 -20.046875 C 16.273438 -19.734375 17.445312 -19.300781 18.375 -18.75 L 16.421875 -14.578125 C 14.640625 -15.578125 12.695312 -16.078125 10.59375 -16.078125 C 9.34375 -16.078125 8.40625 -15.898438 7.78125 -15.546875 C 7.15625 -15.203125 6.84375 -14.753906 6.84375 -14.203125 C 6.84375 -13.578125 7.179688 -13.140625 7.859375 -12.890625 C 8.535156 -12.640625 9.609375 -12.398438 11.078125 -12.171875 C 12.734375 -11.898438 14.085938 -11.609375 15.140625 -11.296875 C 16.191406 -10.984375 17.101562 -10.410156 17.875 -9.578125 C 18.65625 -8.753906 19.046875 -7.601562 19.046875 -6.125 C 19.046875 -4.875 18.671875 -3.757812 17.921875 -2.78125 C 17.171875 -1.800781 16.070312 -1.039062 14.625 -0.5 C 13.1875 0.03125 11.476562 0.296875 9.5 0.296875 Z M 9.5 0.296875 "/></g></g><g style="fill:#132830;fill-opacity:1;"><g transform="translate(94.507615, 34.853789)"><path style="stroke:none" d="M 15.75 -0.984375 C 15.164062 -0.554688 14.453125 -0.234375 13.609375 -0.015625 C 12.773438 0.191406 11.894531 0.296875 10.96875 0.296875 C 8.5625 0.296875 6.703125 -0.3125 5.390625 -1.53125 C 4.078125 -2.757812 3.421875 -4.566406 3.421875 -6.953125 L 3.421875 -15.25 L 0.296875 -15.25 L 0.296875 -19.765625 L 3.421875 -19.765625 L 3.421875 -24.6875 L 9.28125 -24.6875 L 9.28125 -19.765625 L 14.3125 -19.765625 L 14.3125 -15.25 L 9.28125 -15.25 L 9.28125 -7.03125 C 9.28125 -6.175781 9.5 -5.515625 9.9375 -5.046875 C 10.375 -4.585938 10.992188 -4.359375 11.796875 -4.359375 C 12.722656 -4.359375 13.515625 -4.609375 14.171875 -5.109375 Z M 15.75 -0.984375 "/></g></g><g style="fill:#132830;fill-opacity:1;"><g transform="translate(110.211873, 34.853789)"><path style="stroke:none" d="M 22.515625 -10.03125 C 22.515625 -9.957031 22.472656 -9.429688 22.390625 -8.453125 L 7.109375 -8.453125 C 7.378906 -7.203125 8.023438 -6.210938 9.046875 -5.484375 C 10.078125 -4.753906 11.359375 -4.390625 12.890625 -4.390625 C 13.941406 -4.390625 14.875 -4.546875 15.6875 -4.859375 C 16.5 -5.179688 17.257812 -5.675781 17.96875 -6.34375 L 21.078125 -2.96875 C 19.171875 -0.789062 16.390625 0.296875 12.734375 0.296875 C 10.453125 0.296875 8.4375 -0.144531 6.6875 -1.03125 C 4.9375 -1.925781 3.582031 -3.160156 2.625 -4.734375 C 1.675781 -6.316406 1.203125 -8.109375 1.203125 -10.109375 C 1.203125 -12.085938 1.671875 -13.867188 2.609375 -15.453125 C 3.546875 -17.046875 4.832031 -18.285156 6.46875 -19.171875 C 8.113281 -20.066406 9.953125 -20.515625 11.984375 -20.515625 C 13.960938 -20.515625 15.753906 -20.085938 17.359375 -19.234375 C 18.960938 -18.390625 20.222656 -17.171875 21.140625 -15.578125 C 22.054688 -13.984375 22.515625 -12.132812 22.515625 -10.03125 Z M 12.03125 -16.078125 C 10.695312 -16.078125 9.578125 -15.703125 8.671875 -14.953125 C 7.773438 -14.203125 7.226562 -13.175781 7.03125 -11.875 L 16.984375 -11.875 C 16.785156 -13.15625 16.234375 -14.175781 15.328125 -14.9375 C 14.429688 -15.695312 13.332031 -16.078125 12.03125 -16.078125 Z M 12.03125 -16.078125 "/></g></g><g style="fill:#132830;fill-opacity:1;"><g transform="translate(133.91861, 34.853789)"><path style="stroke:none" d="M 8.3125 -17.546875 C 9.007812 -18.523438 9.953125 -19.265625 11.140625 -19.765625 C 12.328125 -20.265625 13.695312 -20.515625 15.25 -20.515625 L 15.25 -15.109375 C 14.601562 -15.160156 14.164062 -15.1875 13.9375 -15.1875 C 12.257812 -15.1875 10.941406 -14.710938 9.984375 -13.765625 C 9.035156 -12.828125 8.5625 -11.421875 8.5625 -9.546875 L 8.5625 0 L 2.703125 0 L 2.703125 -20.21875 L 8.3125 -20.21875 Z M 8.3125 -17.546875 "/></g></g><g style="fill:#132830;fill-opacity:1;"><g transform="translate(150.111327, 34.853789)"><path style="stroke:none" d=""/></g></g><g style="fill:#132830;fill-opacity:1;"><g transform="translate(160.743652, 34.853789)"><path style="stroke:none" d="M 23.34375 0.453125 L 20.171875 -2.484375 C 17.671875 -0.523438 14.742188 0.453125 11.390625 0.453125 C 9.484375 0.453125 7.765625 0.144531 6.234375 -0.46875 C 4.710938 -1.082031 3.519531 -1.941406 2.65625 -3.046875 C 1.789062 -4.148438 1.359375 -5.390625 1.359375 -6.765625 C 1.359375 -8.390625 1.8125 -9.820312 2.71875 -11.0625 C 3.632812 -12.300781 5.109375 -13.488281 7.140625 -14.625 C 6.191406 -15.59375 5.503906 -16.519531 5.078125 -17.40625 C 4.648438 -18.300781 4.4375 -19.222656 4.4375 -20.171875 C 4.4375 -21.453125 4.773438 -22.582031 5.453125 -23.5625 C 6.128906 -24.539062 7.085938 -25.296875 8.328125 -25.828125 C 9.566406 -26.367188 11 -26.640625 12.625 -26.640625 C 14.90625 -26.640625 16.734375 -26.09375 18.109375 -25 C 19.484375 -23.914062 20.171875 -22.445312 20.171875 -20.59375 C 20.171875 -19.238281 19.765625 -18.035156 18.953125 -16.984375 C 18.140625 -15.929688 16.832031 -14.914062 15.03125 -13.9375 L 19.84375 -9.46875 C 20.414062 -10.664062 20.851562 -12.03125 21.15625 -13.5625 L 25.859375 -12.09375 C 25.359375 -9.769531 24.554688 -7.78125 23.453125 -6.125 L 26.53125 -3.265625 Z M 12.625 -22.65625 C 11.75 -22.65625 11.050781 -22.429688 10.53125 -21.984375 C 10.019531 -21.535156 9.765625 -20.957031 9.765625 -20.25 C 9.765625 -19.726562 9.898438 -19.234375 10.171875 -18.765625 C 10.453125 -18.304688 10.992188 -17.6875 11.796875 -16.90625 C 13.078125 -17.582031 13.96875 -18.191406 14.46875 -18.734375 C 14.96875 -19.273438 15.21875 -19.859375 15.21875 -20.484375 C 15.21875 -21.128906 14.988281 -21.648438 14.53125 -22.046875 C 14.082031 -22.453125 13.445312 -22.65625 12.625 -22.65625 Z M 11.796875 -4.140625 C 13.628906 -4.140625 15.269531 -4.648438 16.71875 -5.671875 L 10.375 -11.609375 C 9.195312 -10.929688 8.359375 -10.265625 7.859375 -9.609375 C 7.359375 -8.960938 7.109375 -8.226562 7.109375 -7.40625 C 7.109375 -6.425781 7.53125 -5.632812 8.375 -5.03125 C 9.226562 -4.4375 10.367188 -4.140625 11.796875 -4.140625 Z M 11.796875 -4.140625 "/></g></g><g style="fill:#132830;fill-opacity:1;"><g transform="translate(188.094684, 34.853789)"><path style="stroke:none" d=""/></g></g><g style="fill:#132830;fill-opacity:1;"><g transform="translate(198.727009, 34.853789)"><path style="stroke:none" d="M 8.5625 -21.34375 L 0.15625 -21.34375 L 0.15625 -26.296875 L 23.078125 -26.296875 L 23.078125 -21.34375 L 14.65625 -21.34375 L 14.65625 0 L 8.5625 0 Z M 8.5625 -21.34375 "/></g></g><g style="fill:#132830;fill-opacity:1;"><g transform="translate(221.494462, 34.853789)"><path style="stroke:none" d="M 23.078125 -20.21875 L 23.078125 0 L 17.515625 0 L 17.515625 -2.40625 C 16.734375 -1.53125 15.800781 -0.859375 14.71875 -0.390625 C 13.644531 0.0664062 12.484375 0.296875 11.234375 0.296875 C 8.578125 0.296875 6.472656 -0.460938 4.921875 -1.984375 C 3.367188 -3.515625 2.59375 -5.785156 2.59375 -8.796875 L 2.59375 -20.21875 L 8.453125 -20.21875 L 8.453125 -9.65625 C 8.453125 -6.394531 9.816406 -4.765625 12.546875 -4.765625 C 13.953125 -4.765625 15.078125 -5.222656 15.921875 -6.140625 C 16.773438 -7.054688 17.203125 -8.414062 17.203125 -10.21875 L 17.203125 -20.21875 Z M 9.03125 -23 C 8.269531 -23 7.640625 -23.242188 7.140625 -23.734375 C 6.640625 -24.222656 6.390625 -24.84375 6.390625 -25.59375 C 6.390625 -26.34375 6.640625 -26.960938 7.140625 -27.453125 C 7.640625 -27.941406 8.269531 -28.1875 9.03125 -28.1875 C 9.78125 -28.1875 10.398438 -27.941406 10.890625 -27.453125 C 11.378906 -26.960938 11.625 -26.34375 11.625 -25.59375 C 11.625 -24.84375 11.378906 -24.222656 10.890625 -23.734375 C 10.398438 -23.242188 9.78125 -23 9.03125 -23 Z M 16.609375 -23 C 15.859375 -23 15.238281 -23.242188 14.75 -23.734375 C 14.257812 -24.222656 14.015625 -24.84375 14.015625 -25.59375 C 14.015625 -26.34375 14.257812 -26.960938 14.75 -27.453125 C 15.238281 -27.941406 15.859375 -28.1875 16.609375 -28.1875 C 17.367188 -28.1875 18 -27.941406 18.5 -27.453125 C 19 -26.960938 19.25 -26.34375 19.25 -25.59375 C 19.25 -24.84375 19 -24.222656 18.5 -23.734375 C 18 -23.242188 17.367188 -23 16.609375 -23 Z M 16.609375 -23 "/></g></g><g style="fill:#132830;fill-opacity:1;"><g transform="translate(247.305125, 34.853789)"><path style="stroke:none" d="M 8.3125 -17.546875 C 9.007812 -18.523438 9.953125 -19.265625 11.140625 -19.765625 C 12.328125 -20.265625 13.695312 -20.515625 15.25 -20.515625 L 15.25 -15.109375 C 14.601562 -15.160156 14.164062 -15.1875 13.9375 -15.1875 C 12.257812 -15.1875 10.941406 -14.710938 9.984375 -13.765625 C 9.035156 -12.828125 8.5625 -11.421875 8.5625 -9.546875 L 8.5625 0 L 2.703125 0 L 2.703125 -20.21875 L 8.3125 -20.21875 Z M 8.3125 -17.546875 "/></g></g><g style="fill:#132830;fill-opacity:1;"><g transform="translate(263.15968, 34.853789)"><path style="stroke:none" d="M 22.515625 -10.03125 C 22.515625 -9.957031 22.472656 -9.429688 22.390625 -8.453125 L 7.109375 -8.453125 C 7.378906 -7.203125 8.023438 -6.210938 9.046875 -5.484375 C 10.078125 -4.753906 11.359375 -4.390625 12.890625 -4.390625 C 13.941406 -4.390625 14.875 -4.546875 15.6875 -4.859375 C 16.5 -5.179688 17.257812 -5.675781 17.96875 -6.34375 L 21.078125 -2.96875 C 19.171875 -0.789062 16.390625 0.296875 12.734375 0.296875 C 10.453125 0.296875 8.4375 -0.144531 6.6875 -1.03125 C 4.9375 -1.925781 3.582031 -3.160156 2.625 -4.734375 C 1.675781 -6.316406 1.203125 -8.109375 1.203125 -10.109375 C 1.203125 -12.085938 1.671875 -13.867188 2.609375 -15.453125 C 3.546875 -17.046875 4.832031 -18.285156 6.46875 -19.171875 C 8.113281 -20.066406 9.953125 -20.515625 11.984375 -20.515625 C 13.960938 -20.515625 15.753906 -20.085938 17.359375 -19.234375 C 18.960938 -18.390625 20.222656 -17.171875 21.140625 -15.578125 C 22.054688 -13.984375 22.515625 -12.132812 22.515625 -10.03125 Z M 12.03125 -16.078125 C 10.695312 -16.078125 9.578125 -15.703125 8.671875 -14.953125 C 7.773438 -14.203125 7.226562 -13.175781 7.03125 -11.875 L 16.984375 -11.875 C 16.785156 -13.15625 16.234375 -14.175781 15.328125 -14.9375 C 14.429688 -15.695312 13.332031 -16.078125 12.03125 -16.078125 Z M 12.03125 -16.078125 "/></g></g><g style="fill:#132830;fill-opacity:1;"><g transform="translate(286.866417, 34.853789)"><path style="stroke:none" d="M 15 -20.515625 C 17.5 -20.515625 19.519531 -19.765625 21.0625 -18.265625 C 22.601562 -16.765625 23.375 -14.535156 23.375 -11.578125 L 23.375 0 L 17.515625 0 L 17.515625 -10.671875 C 17.515625 -12.273438 17.160156 -13.46875 16.453125 -14.25 C 15.753906 -15.039062 14.742188 -15.4375 13.421875 -15.4375 C 11.941406 -15.4375 10.757812 -14.976562 9.875 -14.0625 C 9 -13.15625 8.5625 -11.800781 8.5625 -10 L 8.5625 0 L 2.703125 0 L 2.703125 -20.21875 L 8.3125 -20.21875 L 8.3125 -17.84375 C 9.082031 -18.695312 10.039062 -19.351562 11.1875 -19.8125 C 12.34375 -20.28125 13.613281 -20.515625 15 -20.515625 Z M 15 -20.515625 "/></g></g></g></g></g></g></g></g></g></g></g></g></svg>